<svg width="20" height="18" viewBox="0 0 20 18" fill="none" xmlns="http://www.w3.org/2000/svg">
<path fill-rule="evenodd" clip-rule="evenodd" d="M10 3.39601L9.155 2.52701C8.65344 2.06513 8.05203 1.72527 7.39761 1.53388C6.74319 1.34249 6.05342 1.30474 5.38202 1.42358C4.71063 1.54241 4.07572 1.81462 3.52675 2.21901C2.97778 2.62339 2.52956 3.14904 2.217 3.75501C1.601 4.96101 1.461 6.70301 2.587 8.92601C3.672 11.067 5.929 13.626 10 16.426C14.071 13.633 16.327 11.07 17.413 8.92601C18.539 6.70201 18.401 4.96101 17.783 3.75501C17.4707 3.1489 17.0228 2.62308 16.474 2.21849C15.9252 1.8139 15.2904 1.54148 14.619 1.42244C13.9477 1.30341 13.2579 1.34097 12.6035 1.53222C11.9491 1.72346 11.3476 2.06321 10.846 2.52501L10 3.39601ZM10 17.845C-8.082 5.89601 4.432 -3.42999 9.793 1.50301C9.864 1.56801 9.933 1.63501 10.001 1.70301C10.0677 1.63634 10.137 1.56967 10.209 1.50301C15.566 -3.43199 28.082 5.89401 10 17.844V17.845Z" fill="#F56969"/>
</svg>
